HIERARCHY
ROOT root
{
	OFFSET 0.000000 0.000000 0.000000
	CHANNELS 6 Xposition Yposition Zposition Zrotation Yrotation Xrotation
	JOINT lhip
	{
		OFFSET 0.058581 -0.082280 -0.017664
		CHANNELS 3 Zrotation Yrotation Xrotation
		JOINT lknee
		{
			OFFSET 0.043451 -0.386469 0.008037
			CHANNELS 3 Zrotation Yrotation Xrotation
			JOINT lankle
			{
				OFFSET -0.014790 -0.426874 -0.037428
				CHANNELS 3 Zrotation Yrotation Xrotation
				JOINT ltoe
				{
					OFFSET 0.041054 -0.060286 0.122042
					CHANNELS 3 Zrotation Yrotation Xrotation
					End Site
					{
						OFFSET 0.000000 0.000000 0.000000
					}
				}
			}
		}
	}
	JOINT rhip
	{
		OFFSET -0.060310 -0.090513 -0.013543
		CHANNELS 3 Zrotation Yrotation Xrotation
		JOINT rknee
		{
			OFFSET -0.043257 -0.383688 -0.004843
			CHANNELS 3 Zrotation Yrotation Xrotation
			JOINT rankle
			{
				OFFSET 0.019056 -0.420046 -0.034562
				CHANNELS 3 Zrotation Yrotation Xrotation
				JOINT rtoe
				{
					OFFSET -0.034840 -0.062106 0.130323
					CHANNELS 3 Zrotation Yrotation Xrotation
					End Site
					{
						OFFSET 0.000000 0.000000 0.000000
					}
				}
			}
		}
	}
	JOINT lowerback
	{
		OFFSET 0.004439 0.124404 -0.038385
		CHANNELS 3 Zrotation Yrotation Xrotation
		JOINT upperback
		{
			OFFSET 0.004488 0.137956 0.026820
			CHANNELS 3 Zrotation Yrotation Xrotation
			JOINT chest
			{
				OFFSET -0.002265 0.056032 0.002855
				CHANNELS 3 Zrotation Yrotation Xrotation
				JOINT lowerneck
				{
					OFFSET -0.013390 0.211636 -0.033468
					CHANNELS 3 Zrotation Yrotation Xrotation
					JOINT upperneck
					{
						OFFSET 0.010113 0.088937 0.050410
						CHANNELS 3 Zrotation Yrotation Xrotation
						End Site
						{
							OFFSET 0.000000 0.000000 0.000000
						}
					}
				}
				JOINT lclavicle
				{
					OFFSET 0.071702 0.114000 -0.018898
					CHANNELS 3 Zrotation Yrotation Xrotation
					JOINT lshoulder
					{
						OFFSET 0.122921 0.045205 -0.019046
						CHANNELS 3 Zrotation Yrotation Xrotation
						JOINT lelbow
						{
							OFFSET 0.255332 -0.015649 -0.022946
							CHANNELS 3 Zrotation Yrotation Xrotation
							JOINT lwrist
							{
								OFFSET 0.265709 0.012698 -0.007375
								CHANNELS 3 Zrotation Yrotation Xrotation
								End Site
								{
									OFFSET 0.000000 0.000000 0.000000
								}
							}
						}
					}
				}
				JOINT rclavicle
				{
					OFFSET -0.082954 0.112472 -0.023707
					CHANNELS 3 Zrotation Yrotation Xrotation
					JOINT rshoulder
					{
						OFFSET -0.113228 0.046853 -0.008472
						CHANNELS 3 Zrotation Yrotation Xrotation
						JOINT relbow
						{
							OFFSET -0.260127 -0.014369 -0.031269
							CHANNELS 3 Zrotation Yrotation Xrotation
							JOINT rwrist
							{
								OFFSET -0.269108 0.006794 -0.006027
								CHANNELS 3 Zrotation Yrotation Xrotation
								End Site
								{
									OFFSET 0.000000 0.000000 0.000000
								}
							}
						}
					}
				}
			}
		}
	}
}
MOTION
Frames: 17
Frame Time: 0.033333
-0.868239 0.310414 1.026416 95.547933 -0.311052 87.888354 0.427042 -0.951090 8.739847 -6.409749 -11.595075 38.709903 0.479598 7.567906 12.942830 0.000000 -0.000000 0.000000 0.917458 -0.718436 -12.598899 1.426389 -6.311438 11.211488 -0.419364 -9.129922 1.699911 0.000000 -0.000000 0.000000 -0.094251 -2.451829 11.850816 1.854670 -1.225942 0.746067 0.390915 -3.176552 3.043078 3.176873 7.575770 -5.669092 0.423072 4.045820 12.818556 -27.754109 3.854075 1.170204 -53.397311 -10.844236 10.291234 4.193000 -20.735875 9.677779 -8.653951 -2.241719 -1.331870 32.991114 -2.211620 0.298256 52.258576 5.843579 11.278456 -9.554376 2.634454 -12.222466 8.106325 -1.026906 -5.245530 
-0.838596 0.306091 1.028597 95.324851 -0.616370 86.920026 1.210126 -0.533104 5.684862 -8.141898 -9.009877 43.810433 -2.087999 5.740712 9.595259 0.000000 -0.000000 0.000000 1.399171 -1.421251 -9.605170 1.085136 -5.430455 11.414513 -0.637245 -8.798354 -0.189951 0.000000 -0.000000 0.000000 -0.668543 -1.328773 12.186017 1.774824 -1.294328 0.487994 0.327446 -2.877405 3.061670 3.412565 7.456751 -5.381056 0.613698 3.461455 13.386182 -28.108869 3.117539 0.777355 -52.511999 -11.458709 10.045676 4.353376 -22.804972 9.660113 -7.695104 -2.680930 -1.351911 33.242614 -1.475656 0.098731 52.298609 6.448094 11.227189 -9.246539 3.338339 -11.578088 7.802840 -0.968444 -5.395929 
-0.810753 0.302418 1.030292 94.326196 -1.220559 86.081647 1.446645 -0.230861 2.726610 -7.225445 -5.326399 46.065928 -0.371710 6.930958 5.444080 0.000000 -0.000000 0.000000 1.404892 -2.080934 -7.087150 0.803808 -4.505958 11.851037 -0.412485 -8.406943 -2.060679 0.000000 -0.000000 0.000000 -1.584400 -0.001055 12.496177 1.479424 -0.878123 -0.229651 0.302219 -2.251417 3.229103 3.743162 7.420102 -4.483548 0.921596 3.198833 14.580058 -28.028874 2.908785 0.447502 -52.456814 -12.332621 9.705742 5.182446 -25.409994 8.591388 -6.466095 -2.910685 -2.290013 33.393360 -0.768364 0.185024 52.647717 7.450072 11.351011 -9.434789 3.229290 -11.682327 7.195578 -1.030128 -5.439710 
-0.783629 0.299704 1.031341 92.931915 -1.907420 85.420307 1.246388 -0.381295 -0.038662 -6.936667 -2.631611 46.177565 0.723448 7.517329 1.486243 0.000000 -0.000000 0.000000 1.132297 -2.403933 -4.614507 0.658215 -3.244883 11.947439 -0.306828 -7.835013 -3.518256 0.000000 -0.000000 0.000000 -2.391056 1.131806 12.439471 1.077985 -0.414795 -0.855259 0.219336 -1.462823 3.406922 4.109952 7.306030 -3.987872 1.006230 2.813153 15.447747 -27.921147 2.908273 0.021294 -52.784437 -13.015411 9.557804 6.386018 -28.271233 6.695346 -4.990351 -3.636018 -4.422965 33.339359 -0.115431 0.474140 52.984750 8.419862 11.616936 -9.881646 3.553413 -11.978360 6.393207 -0.885828 -5.957789 
-0.757905 0.298156 1.031756 91.796030 -2.467211 84.697768 0.898439 -1.276105 -2.402542 -6.931199 -0.704467 44.323165 1.097138 7.591403 -1.588975 0.000000 -0.000000 0.000000 0.845848 -2.565889 -2.007636 0.466716 -1.918119 11.903066 -0.136752 -7.627426 -4.732910 0.000000 -0.000000 0.000000 -2.692635 2.006724 12.708396 0.669816 -0.266253 -1.372978 -0.012467 -0.918902 3.500993 4.427011 6.849848 -3.547025 1.002527 2.279261 16.209471 -27.899974 3.057198 -0.173761 -53.114847 -13.573259 9.462830 7.661559 -31.665826 4.527344 -3.513070 -4.267238 -7.512030 32.916294 0.450014 0.373382 53.267016 9.350622 12.044247 -10.158306 4.220843 -11.890397 5.528162 -0.622013 -6.300737 
-0.733608 0.296951 1.031563 90.687587 -3.001355 84.278797 0.417919 -2.346037 -5.033094 -7.275646 0.433817 41.075318 1.288357 8.027457 -4.422585 0.000000 -0.000000 0.000000 0.477906 -2.770050 -0.002372 0.321786 -0.582120 12.169457 0.384049 -7.688625 -6.158386 0.000000 -0.000000 0.000000 -2.938493 2.787777 12.523560 0.379932 -0.312580 -1.717317 -0.309329 -0.630745 3.794156 4.590998 7.096039 -3.637439 0.778805 2.067033 17.002107 -27.950304 3.273872 -0.448084 -53.304530 -14.021861 9.687528 8.814164 -34.991118 2.705436 -2.238289 -4.588453 -9.907304 32.702089 0.991670 0.307998 52.957723 10.695313 12.423086 -10.292675 4.939410 -12.138456 5.035082 -0.387921 -6.369736 
-0.710300 0.296217 1.030868 89.704075 -3.383519 83.720077 -0.116202 -3.006829 -7.097017 -6.759464 1.051845 36.579722 1.398403 8.096353 -5.812689 0.000000 -0.000000 0.000000 0.225211 -2.953479 2.227672 0.047866 0.461087 12.098800 0.618187 -7.541569 -7.399648 0.000000 -0.000000 0.000000 -2.935257 3.445396 12.785978 0.055742 -0.480828 -1.937882 -0.570754 -0.277579 3.756255 4.624041 7.579625 -3.180380 0.767989 2.293166 17.245768 -27.612664 3.248192 -0.548649 -53.719486 -14.212261 10.163793 9.529565 -38.147531 2.243618 -1.471317 -4.545624 -11.170848 32.239216 1.347650 0.035280 52.836124 11.528831 12.532370 -10.652690 6.395837 -12.442459 4.760122 0.067980 -6.728988 
-0.688645 0.296021 1.029600 88.959426 -3.602886 83.457093 -0.712339 -3.678876 -9.419024 -5.555574 1.445107 31.818670 1.501507 8.337093 -5.979302 0.000000 -0.000000 0.000000 -0.010031 -3.004808 4.040104 -0.087609 1.295623 12.000173 0.840154 -7.454118 -8.454899 0.000000 -0.000000 0.000000 -2.782774 3.892640 12.959353 -0.193680 -0.669208 -2.205842 -0.754430 -0.114797 3.795032 4.547717 8.202726 -3.102585 0.489178 2.466063 17.703061 -27.463975 2.977638 -0.783757 -53.879352 -14.360944 10.832280 9.966609 -40.418292 2.411861 -1.358676 -4.972650 -11.162053 31.845131 1.823150 -0.116958 52.479547 12.577815 12.597702 -11.007006 7.581798 -13.189000 4.465220 0.875137 -7.075997 
-0.666599 0.295416 1.027919 87.929960 -3.690415 83.327081 -0.979002 -4.141335 -11.353745 -4.750323 1.877130 26.187810 1.646052 8.832549 -5.795234 0.000000 -0.000000 0.000000 -0.171411 -3.168758 5.855454 -0.200628 2.256398 11.774250 0.901815 -7.230856 -9.539581 0.000000 -0.000000 0.000000 -2.785558 4.506064 12.691639 -0.217492 -0.885479 -2.121328 -0.725498 0.090605 3.806011 4.612186 8.440573 -2.903833 0.203012 2.127791 17.976161 -27.276083 2.698742 -0.799963 -54.068388 -14.348961 11.456611 9.834154 -41.653802 2.934306 -0.948552 -5.080672 -10.969408 31.617214 2.371029 -0.206318 51.922185 13.587805 12.516765 -11.493317 8.507429 -13.697436 4.363186 1.235930 -7.215487 
-0.646481 0.294895 1.025756 86.824768 -3.662800 83.586035 -0.887467 -4.765849 -13.194274 -4.412074 2.051478 19.916822 0.845376 8.574661 -4.684127 0.000000 -0.000000 0.000000 -0.223668 -3.177276 6.691658 -0.194642 3.147768 12.281134 0.994476 -7.066588 -10.562852 0.000000 -0.000000 0.000000 -2.853372 5.067879 12.509801 -0.169712 -0.874234 -2.206919 -0.673788 0.173333 3.740095 5.127025 8.595167 -3.354465 0.090736 1.262128 18.206254 -27.109046 2.324541 -1.019582 -54.255727 -14.064526 12.326145 9.866912 -42.345996 3.587608 -1.155381 -5.458411 -10.343345 31.460878 2.832922 -0.418876 51.566907 14.703144 12.451291 -12.142811 9.181126 -14.498792 4.181451 1.866546 -7.302456 
-0.624663 0.294379 1.023416 85.706325 -3.684442 83.847550 -0.913364 -5.014118 -14.027009 -4.208361 1.147694 12.678680 -0.016129 7.792194 -3.120773 0.000000 -0.000000 0.000000 -0.385253 -3.262708 7.713432 -0.371843 3.883393 12.744252 1.368907 -6.552916 -11.695656 0.000000 -0.000000 0.000000 -3.023995 5.599261 12.064936 -0.100296 -0.952175 -2.013246 -0.587984 0.297312 3.485687 5.359578 9.466839 -3.253231 -0.312032 0.916101 18.517038 -27.130396 2.291580 -1.217564 -54.128560 -13.895242 12.862004 9.251031 -42.158812 4.356079 -0.761102 -6.109229 -8.806710 31.331952 3.178452 -0.618617 51.322483 15.635088 12.470084 -12.627991 9.970590 -15.066027 4.053255 2.514453 -7.400982 
-0.603363 0.294695 1.020565 84.464239 -3.559913 84.441053 -0.898772 -4.747876 -15.132592 -3.547398 0.381972 5.842646 -1.060768 7.422259 -3.002695 0.000000 -0.000000 0.000000 -0.597539 -3.409574 8.370612 -0.314639 4.678928 13.113837 1.749946 -6.114170 -12.641031 0.000000 -0.000000 0.000000 -2.921181 5.741636 11.885279 -0.250771 -0.864604 -2.421632 -0.624692 0.572106 3.154013 5.464813 10.528167 -3.160946 -0.541579 1.156844 18.801094 -26.896844 2.454046 -1.307408 -54.304077 -12.989138 13.286816 8.674636 -41.644202 5.115892 -1.004587 -5.834636 -8.576211 31.276595 3.483443 -0.631420 51.162334 16.734849 12.433683 -12.988243 10.307429 -15.484294 3.990807 2.979702 -7.290692 
-0.581203 0.295196 1.017140 83.411284 -3.260792 85.068072 -0.727028 -4.250019 -16.068263 -2.803902 0.476566 -0.151232 -3.723807 6.177820 -1.444358 0.000000 -0.000000 0.000000 -0.613458 -3.291537 9.321011 -0.381741 5.143035 12.892242 2.126838 -5.781456 -13.061530 0.000000 -0.000000 0.000000 -2.641707 5.879341 11.267895 -0.297358 -0.831671 -2.239360 -0.691122 0.705628 3.015045 5.729903 11.019299 -3.366183 -0.676959 0.710748 18.663192 -27.104934 2.502332 -1.287765 -54.251196 -12.396152 13.369348 8.516123 -40.365204 5.025409 -1.320541 -5.768460 -7.824153 31.176147 3.761269 -0.794998 51.048967 17.919035 12.367304 -13.375282 11.016839 -15.854373 3.930110 3.296586 -6.957609 
-0.558960 0.296040 1.013740 82.251553 -2.970642 85.839798 -0.627603 -3.688885 -17.414399 -2.366599 1.515504 -3.306345 -2.789027 6.059685 -2.103945 0.000000 -0.000000 0.000000 -0.892541 -3.507326 9.847330 -0.241169 5.740426 13.144714 2.438543 -5.274130 -13.534905 0.000000 -0.000000 0.000000 -2.404484 6.202596 11.169554 -0.370952 -0.663405 -2.761494 -0.750490 0.908088 2.716616 5.932040 11.073039 -3.319615 -0.958467 0.580201 18.668325 -27.383354 2.800482 -1.383908 -54.255635 -11.669533 13.066867 7.848988 -38.366696 5.547114 -1.792320 -5.541545 -6.678684 30.963852 3.828619 -0.939210 51.168730 18.641253 12.335233 -13.833647 11.557142 -16.126726 3.948309 3.515148 -6.665377 
-0.534850 0.297207 1.010613 81.036355 -2.698143 86.294310 -0.208107 -3.656409 -18.857024 -2.710196 2.534904 -2.335733 -4.130431 5.563296 -0.434093 0.000000 -0.000000 0.000000 -1.240899 -3.515950 10.822344 -0.161259 6.466843 13.446980 2.698587 -4.717480 -13.884141 0.000000 -0.000000 0.000000 -2.059797 6.583813 10.971137 -0.446915 -0.567368 -2.659158 -0.967335 1.132589 2.641956 6.079864 11.228300 -4.286364 -1.114134 0.319161 18.597446 -27.928720 3.153910 -1.874145 -54.021324 -10.805716 12.903208 7.579312 -36.017774 5.721200 -2.087481 -5.531041 -5.525703 31.150585 3.951324 -1.273491 50.856308 19.523048 12.340690 -13.973224 11.993234 -16.448850 3.867818 3.659494 -6.437400 
-0.509361 0.298369 1.007658 79.760140 -2.672758 86.640551 0.137730 -4.216504 -19.471837 -3.128925 3.216291 -0.203300 -1.690800 6.796933 -0.482840 0.000000 -0.000000 0.000000 -1.934321 -3.496661 11.771933 -0.123483 7.453613 14.068400 3.039657 -4.329889 -13.958712 0.000000 -0.000000 0.000000 -2.335375 7.250733 10.680722 -0.406350 -0.417844 -2.512828 -0.924884 1.406078 2.550276 6.204280 10.930389 -4.177445 -1.108361 0.514435 18.467620 -28.204439 3.274444 -1.847815 -54.098364 -10.008186 12.470896 7.514853 -33.395410 5.782833 -2.585794 -4.887336 -5.025795 31.241794 4.220390 -1.140171 50.426256 20.042888 12.223695 -14.360350 12.547100 -16.707369 3.754974 3.698609 -6.353914 
-0.481058 0.299868 1.005394 77.992536 -2.599373 87.066846 0.141890 -4.213343 -18.545175 -3.211466 2.110262 0.544880 -1.847291 6.374910 -1.287022 0.000000 -0.000000 0.000000 -2.663085 -3.250109 12.357407 -0.280592 8.209559 15.256379 3.825907 -3.603529 -13.635345 0.000000 -0.000000 0.000000 -2.434978 7.682900 10.191256 -0.535329 0.132904 -2.451916 -1.021171 1.852287 2.344904 6.511352 10.847071 -3.736383 -1.218297 0.441538 18.072244 -28.568464 3.729356 -1.893462 -54.081523 -8.875773 12.082318 7.710679 -30.612134 5.693120 -3.069197 -4.424926 -4.454232 31.359137 4.513783 -0.744373 50.080155 20.440643 12.140774 -14.464704 12.516734 -16.771944 3.659187 3.747661 -6.264523 
